<svg width="40" height="20" viewBox="0 0 40 20" fill="none" xmlns="http://www.w3.org/2000/svg">
<path d="M34 19C34 19.5523 33.5523 20 33 20H28C27.4477 20 27 19.5523 27 19H34Z" fill="black"/>
<path d="M10 19C10 19.5523 9.55228 20 9 20H4C3.44772 20 3 19.5523 3 19H10Z" fill="black"/>
<path d="M34 1C34 0.447715 33.5523 0 33 0L28 0C27.4477 0 27 0.447715 27 1L34 1Z" fill="black"/>
<path d="M10 1C10 0.447715 9.55228 0 9 0L4 0C3.44772 0 3 0.447715 3 1L10 1Z" fill="black"/>
<path d="M37.0572 0.5C37.6165 0.5 38.1095 0.866838 38.2702 1.40251C40.0505 7.33686 40.0505 12.6631 38.2702 18.5975C38.1095 19.1332 37.6165 19.5 37.0572 19.5L1.99949 19.5C0.894919 19.5 -0.000511169 18.6046 -0.000511169 17.5V2.5C-0.000511169 1.39543 0.894919 0.5 1.99949 0.5L37.0572 0.5Z" fill="white"/>
<path d="M36 1L35 2L30 2V1L36 1Z" fill="black"/>
<path d="M29 1V2L23 2V1L29 1Z" fill="black"/>
<path d="M22 1V2L16 2V1L22 1Z" fill="black"/>
<path d="M15 1V2L9 2V1L15 1Z" fill="black"/>
<path d="M8 1V2H3L2 1L8 1Z" fill="black"/>
<path opacity="0.3" d="M33.5 2L32.5 1L31.5 1L32.5 2H33.5Z" fill="white"/>
<path opacity="0.3" d="M13.5 2L12.5 1L11.5 1L12.5 2H13.5Z" fill="white"/>
<path d="M36 19L35 18H30V19H36Z" fill="black"/>
<path d="M29 19V18H23V19H29Z" fill="black"/>
<path d="M22 19V18H16V19H22Z" fill="black"/>
<path d="M15 19V18H9V19H15Z" fill="black"/>
<path d="M8 19V18L3 18L2 19L8 19Z" fill="black"/>
<path opacity="0.3" d="M26.5 19L25.5 18H24.5L25.5 19H26.5Z" fill="white"/>
<path opacity="0.3" d="M6.5 19L5.5 18H4.5L5.5 19H6.5Z" fill="white"/>
<path d="M0 2.5C0.552285 2.5 1 2.94772 1 3.5L1 16.5C1 17.0523 0.552285 17.5 0 17.5L0 2.5Z" fill="black"/>
<path d="M38.2992 18.5C40.0409 12.6265 40.0409 7.37354 38.2992 1.5C37.5813 1.5 35.9994 2.08194 35.9994 2.7998V17.2002C35.9994 17.9181 37.5813 18.5 38.2992 18.5Z" fill="url(#paint0_linear_8618_16478)"/>
<path d="M39.5 18.5C39.7761 18.5 40 18.7239 40 19V19C40 19.2761 39.7761 19.5 39.5 19.5H37V18.5H39.5Z" fill="#AAAAAA"/>
<path d="M39.5 0.5C39.7761 0.5 40 0.723858 40 1V1C40 1.27614 39.7761 1.5 39.5 1.5L37 1.5V0.5L39.5 0.5Z" fill="#AAAAAA"/>
<path opacity="0.3" d="M0 6.5L1 7.5L1 10.5L0 9.5L0 6.5Z" fill="white"/>
<defs>
<linearGradient id="paint0_linear_8618_16478" x1="39.6055" y1="10.5" x2="36.9994" y2="10.5" gradientUnits="userSpaceOnUse">
<stop stop-color="#A0A0A0"/>
<stop offset="1"/>
</linearGradient>
</defs>
</svg>
